<svg width="18" height="21" viewBox="0 0 18 21" fill="none" xmlns="http://www.w3.org/2000/svg">
<path d="M15.1333 3.39332C14.2889 2.59332 13.3444 1.9711 12.3 1.52665C11.2555 1.08221 10.1555 0.859983 8.99998 0.859983C7.84442 0.859983 6.73331 1.08221 5.66665 1.52665C4.59998 1.9711 3.66665 2.59332 2.86665 3.39332C2.06665 4.19332 1.44442 5.12665 0.99998 6.19332C0.555535 7.25998 0.333313 8.3711 0.333313 9.52665C0.333313 10.6822 0.555535 11.7822 0.99998 12.8267C1.44442 13.8711 2.06665 14.8155 2.86665 15.66L7.46665 20.26C7.86665 20.66 8.36665 20.86 8.96665 20.86C9.56665 20.86 10.0889 20.66 10.5333 20.26L15.1333 15.66C15.9333 14.8155 16.5555 13.8711 17 12.8267C17.4444 11.7822 17.6666 10.6822 17.6666 9.52665C17.6666 8.3711 17.4444 7.25998 17 6.19332C16.5555 5.12665 15.9333 4.19332 15.1333 3.39332ZM14.2666 14.7933L9.66665 19.3933C9.48887 19.5711 9.26665 19.66 8.99998 19.66C8.73331 19.66 8.48887 19.5711 8.26665 19.3933L3.66665 14.7933C2.95554 14.0822 2.4222 13.2711 2.06665 12.36C1.71109 11.4489 1.53331 10.4933 1.53331 9.49332C1.53331 8.49332 1.71109 7.53776 2.06665 6.62665C2.4222 5.71554 2.95554 4.91554 3.66665 4.22665C4.37776 3.53776 5.18887 3.00443 6.09998 2.62665C7.01109 2.24887 7.96665 2.05998 8.96665 2.05998C9.96665 2.05998 10.9222 2.24887 11.8333 2.62665C12.7444 3.00443 13.5555 3.52665 14.2666 4.19332C15.2444 5.1711 15.9 6.30443 16.2333 7.59332C16.5666 8.88221 16.5666 10.1711 16.2333 11.46C15.9 12.7489 15.2444 13.86 14.2666 14.7933ZM8.99998 6.39332C8.15554 6.39332 7.4222 6.70443 6.79998 7.32665C6.17776 7.94887 5.86665 8.68221 5.86665 9.52665C5.86665 10.3711 6.17776 11.0933 6.79998 11.6933C7.4222 12.2933 8.15554 12.5933 8.99998 12.5933C9.84442 12.5933 10.5666 12.2933 11.1666 11.6933C11.7666 11.0933 12.0666 10.3711 12.0666 9.52665C12.0666 8.68221 11.7666 7.94887 11.1666 7.32665C10.5666 6.70443 9.84442 6.39332 8.99998 6.39332ZM8.99998 11.46C8.46665 11.46 8.01109 11.2711 7.63331 10.8933C7.25554 10.5155 7.06665 10.06 7.06665 9.52665C7.06665 8.99332 7.25554 8.53776 7.63331 8.15998C8.01109 7.78221 8.46665 7.59332 8.99998 7.59332C9.53331 7.59332 9.98887 7.78221 10.3666 8.15998C10.7444 8.53776 10.9333 8.99332 10.9333 9.52665C10.9333 10.06 10.7444 10.5155 10.3666 10.8933C9.98887 11.2711 9.53331 11.46 8.99998 11.46Z" fill="#1A1A1A"/>
</svg>
